<mxfile host="65bd71144e">
    <diagram id="YlRXMw1FrS3BKSS7_pTm" name="第 1 页">
        <mxGraphModel dx="1358" dy="1020" grid="1" gridSize="10" guides="1" tooltips="1" connect="1" arrows="1" fold="1" page="1" pageScale="1" pageWidth="827" pageHeight="1169" math="0" shadow="0">
            <root>
                <mxCell id="0"/>
                <mxCell id="1" parent="0"/>
                <mxCell id="2" value="&lt;div style=&quot;text-align: left;&quot;&gt;&lt;span style=&quot;font-size: 24px;&quot;&gt;defineEmits向父组件暴露函数方法，并传递属性&lt;/span&gt;&lt;br&gt;&lt;/div&gt;" style="text;strokeColor=none;align=center;fillColor=none;html=1;verticalAlign=middle;whiteSpace=wrap;rounded=0;fontSize=14;fontColor=#FF3333;labelBackgroundColor=#FFFF00;" vertex="1" parent="1">
                    <mxGeometry x="150" y="350" width="540" height="30" as="geometry"/>
                </mxCell>
            </root>
        </mxGraphModel>
    </diagram>
</mxfile>